<svg width="16" height="16" viewBox="0 0 16 16" fill="none" xmlns="http://www.w3.org/2000/svg">
<g clip-path="url(#clip0_5302_357)">
<path d="M7.73327 9.58269L1.87941 15.6667C1.77679 15.7728 1.65506 15.8568 1.52119 15.914C1.38731 15.9712 1.24391 16.0004 1.09916 16C0.954417 15.9996 0.811166 15.9696 0.67759 15.9116C0.544015 15.8537 0.422731 15.7689 0.320663 15.6623C0.218595 15.5556 0.137743 15.4291 0.0827243 15.2899C0.0277055 15.1508 -0.000403181 15.0017 4.36909e-06 14.8513C0.00041192 14.7009 0.0293278 14.552 0.0850997 14.4132C0.140871 14.2744 0.222407 14.1483 0.325051 14.0423L6.1388 8.00001L0.325051 1.95775C0.222407 1.85168 0.140871 1.72565 0.0850997 1.58683C0.0293278 1.44801 0.00041192 1.29912 4.36909e-06 1.14869C-0.000403181 0.998253 0.0277055 0.849213 0.0827243 0.710069C0.137743 0.570925 0.218595 0.444411 0.320663 0.337744C0.422731 0.231078 0.544015 0.146349 0.67759 0.0884006C0.811166 0.0304523 0.954417 0.000410768 1.09916 4.18326e-06C1.24391 -0.000402401 1.38731 0.0288329 1.52119 0.0860299C1.65506 0.143227 1.77679 0.227277 1.87941 0.333369L7.73327 6.41733L13.5871 0.333369C13.6898 0.227277 13.8115 0.143227 13.9454 0.0860299C14.0792 0.0288329 14.2226 -0.000402401 14.3674 4.18326e-06C14.5121 0.000410768 14.6554 0.0304523 14.7889 0.0884006C14.9225 0.146349 15.0438 0.231078 15.1459 0.337744C15.2479 0.444411 15.3288 0.570925 15.3838 0.710069C15.4388 0.849213 15.4669 0.998253 15.4665 1.14869C15.4661 1.29912 15.4372 1.44801 15.3814 1.58683C15.3257 1.72565 15.2441 1.85168 15.1415 1.95775L9.32773 8.00001L15.1415 14.0423C15.2441 14.1483 15.3257 14.2744 15.3814 14.4132C15.4372 14.552 15.4661 14.7009 15.4665 14.8513C15.4669 15.0017 15.4388 15.1508 15.3838 15.2899C15.3288 15.4291 15.2479 15.5556 15.1459 15.6623C15.0438 15.7689 14.9225 15.8537 14.7889 15.9116C14.6554 15.9696 14.5121 15.9996 14.3674 16C14.2226 16.0004 14.0792 15.9712 13.9454 15.914C13.8115 15.8568 13.6898 15.7728 13.5871 15.6667L7.73327 9.58269Z" fill="#BCBCBF"/>
</g>
<defs>
<clipPath id="clip0_5302_357">
<rect width="16" height="16" fill="white"/>
</clipPath>
</defs>
</svg>
